<?xml version="1.0" encoding="UTF-8"?>
<svg width="180px" height="180px" viewBox="0 0 180 180" version="1.1" xmlns="http://www.w3.org/2000/svg" xmlns:xlink="http://www.w3.org/1999/xlink">
    <!-- Generator: Sketch 52.6 (67491) - http://www.bohemiancoding.com/sketch -->
    <title>craft-fieldreveal-logo</title>
    <desc>Created with Sketch.</desc>
    <g id="Page-1" stroke="none" stroke-width="1" fill="none" fill-rule="evenodd">
        <g id="craft-fieldreveal-logo" transform="translate(-29.000000, -35.000000)" fill="#000000">
            <g id="noun_explore_110235" transform="translate(29.000000, 35.000000)">
                <g>
                    <path d="M90,180 C40.3448276,180 0,139.655172 0,90 C0,40.3448276 40.3448276,0 90,0 C139.655172,0 180,40.3448276 180,90 C180,139.655172 139.655172,180 90,180 Z M90,6.20689655 C43.7586207,6.20689655 6.20689655,43.7586207 6.20689655,90 C6.20689655,136.241379 43.7586207,173.793103 90,173.793103 C136.241379,173.793103 173.793103,136.241379 173.793103,90 C173.793103,43.7586207 136.241379,6.20689655 90,6.20689655 Z" id="Shape" fill-rule="nonzero"></path>
                    <path d="M90,139.034483 C63,139.034483 40.9655172,117 40.9655172,90 C40.9655172,63 63,40.9655172 90,40.9655172 C117,40.9655172 139.034483,63 139.034483,90 C139.034483,117 117,139.034483 90,139.034483 Z M90,47.1724138 C66.4137931,47.1724138 47.1724138,66.4137931 47.1724138,90 C47.1724138,113.586207 66.4137931,132.827586 90,132.827586 C113.586207,132.827586 132.827586,113.586207 132.827586,90 C132.827586,66.4137931 113.586207,47.1724138 90,47.1724138 Z" id="Shape" fill-rule="nonzero"></path>
                    <path d="M90,108 C80.0689655,108 72,99.9310345 72,90 C72,80.0689655 80.0689655,72 90,72 C99.9310345,72 108,80.0689655 108,90 C108,99.9310345 99.9310345,108 90,108 Z M90,78.2068966 C83.4827586,78.2068966 78.2068966,83.4827586 78.2068966,90 C78.2068966,96.5172414 83.4827586,101.793103 90,101.793103 C96.5172414,101.793103 101.793103,96.5172414 101.793103,90 C101.793103,83.4827586 96.5172414,78.2068966 90,78.2068966 Z" id="Shape" fill-rule="nonzero"></path>
                    <g id="Group">
                        <g transform="translate(40.344828, 12.413793)" id="Rectangle">
                            <polygon transform="translate(6.509260, 146.006227) rotate(3.415834) translate(-6.509260, -146.006227) " points="3.40588458 139.023632 9.61263564 139.023632 9.61263564 152.988822 3.40588458 152.988822"></polygon>
                            <polygon transform="translate(92.794977, 9.160382) rotate(3.415834) translate(-92.794977, -9.160382) " points="89.6916016 2.17778713 95.8983527 2.17778713 95.8983527 16.142977 89.6916016 16.142977"></polygon>
                        </g>
                        <g transform="translate(9.310345, 43.448276)" id="Rectangle">
                            <polygon transform="translate(9.268340, 84.281555) rotate(33.427872) translate(-9.268340, -84.281555) " points="6.16481694 77.2986291 12.3718624 77.2986291 12.3718624 91.2644813 6.16481694 91.2644813"></polygon>
                            <polygon transform="translate(152.102902, 8.832445) rotate(33.427872) translate(-152.102902, -8.832445) " points="148.999379 1.84951873 155.206424 1.84951873 155.206424 15.8153709 148.999379 15.8153709"></polygon>
                        </g>
                        <g transform="translate(0.000000, 80.689655)" id="Rectangle">
                            <polygon transform="translate(9.174352, 6.273497) rotate(63.434949) translate(-9.174352, -6.273497) " points="6.07099779 -0.70904979 12.2777057 -0.70904979 12.2777057 13.2560429 6.07099779 13.2560429"></polygon>
                            <polygon transform="translate(170.551490, 12.475738) rotate(63.434949) translate(-170.551490, -12.475738) " points="167.448136 5.49319159 173.654844 5.49319159 173.654844 19.4582843 167.448136 19.4582843"></polygon>
                        </g>
                        <g transform="translate(12.413793, 40.344828)" id="Rectangle">
                            <polygon transform="translate(9.161000, 6.510435) rotate(3.430412) translate(-9.161000, -6.510435) " points="2.17829858 3.40701243 16.143701 3.40701243 16.143701 9.61385794 2.17829858 9.61385794"></polygon>
                            <polygon transform="translate(146.009063, 92.797827) rotate(3.430412) translate(-146.009063, -92.797827) " points="139.026362 89.6944046 152.991764 89.6944046 152.991764 95.9012501 139.026362 95.9012501"></polygon>
                        </g>
                        <g transform="translate(43.448276, 9.310345)" id="Rectangle">
                            <polygon transform="translate(8.823228, 9.271350) rotate(33.443748) translate(-8.823228, -9.271350) " points="1.84069741 6.16800326 15.8057578 6.16800326 15.8057578 12.3746967 1.84069741 12.3746967"></polygon>
                            <polygon transform="translate(84.277738, 152.096478) rotate(33.443748) translate(-84.277738, -152.096478) " points="77.2952078 148.993131 91.2602681 148.993131 91.2602681 155.199824 77.2952078 155.199824"></polygon>
                        </g>
                        <g transform="translate(80.689655, 0.000000)" id="Rectangle">
                            <polygon transform="translate(12.482566, 9.445097) rotate(63.434949) translate(-12.482566, -9.445097) " points="5.50001918 6.34174262 19.4651119 6.34174262 19.4651119 12.5484505 5.50001918 12.5484505"></polygon>
                            <polygon transform="translate(6.280324, 170.822234) rotate(63.434949) translate(-6.280324, -170.822234) " points="-0.702222204 167.718881 13.2628705 167.718881 13.2628705 173.925588 -0.702222204 173.925588"></polygon>
                        </g>
                    </g>
                </g>
            </g>
        </g>
    </g>
</svg>